<mxfile host="app.diagrams.net" modified="2023-02-08T17:21:20.364Z" agent="5.0 (Macintosh; Intel Mac OS X 10_15_7) AppleWebKit/537.36 (KHTML, like Gecko) Chrome/109.0.0.0 Safari/537.36" etag="gkJywHMt9krG3VBMxpRR" version="20.8.18" type="github">
  <diagram id="C5RBs43oDa-KdzZeNtuy" name="Page-1">
    <mxGraphModel dx="1194" dy="623" grid="1" gridSize="10" guides="1" tooltips="1" connect="1" arrows="1" fold="1" page="1" pageScale="1" pageWidth="827" pageHeight="1169" math="0" shadow="0">
      <root>
        <mxCell id="WIyWlLk6GJQsqaUBKTNV-0" />
        <mxCell id="WIyWlLk6GJQsqaUBKTNV-1" parent="WIyWlLk6GJQsqaUBKTNV-0" />
        <mxCell id="zkfFHV4jXpPFQw0GAbJ--0" value="Person" style="swimlane;fontStyle=2;align=center;verticalAlign=top;childLayout=stackLayout;horizontal=1;startSize=26;horizontalStack=0;resizeParent=1;resizeLast=0;collapsible=1;marginBottom=0;rounded=0;shadow=0;strokeWidth=1;" parent="WIyWlLk6GJQsqaUBKTNV-1" vertex="1">
          <mxGeometry x="220" y="120" width="160" height="138" as="geometry">
            <mxRectangle x="230" y="140" width="160" height="26" as="alternateBounds" />
          </mxGeometry>
        </mxCell>
        <mxCell id="zkfFHV4jXpPFQw0GAbJ--1" value="Name" style="text;align=left;verticalAlign=top;spacingLeft=4;spacingRight=4;overflow=hidden;rotatable=0;points=[[0,0.5],[1,0.5]];portConstraint=eastwest;" parent="zkfFHV4jXpPFQw0GAbJ--0" vertex="1">
          <mxGeometry y="26" width="160" height="26" as="geometry" />
        </mxCell>
        <mxCell id="zkfFHV4jXpPFQw0GAbJ--2" value="Phone Number" style="text;align=left;verticalAlign=top;spacingLeft=4;spacingRight=4;overflow=hidden;rotatable=0;points=[[0,0.5],[1,0.5]];portConstraint=eastwest;rounded=0;shadow=0;html=0;" parent="zkfFHV4jXpPFQw0GAbJ--0" vertex="1">
          <mxGeometry y="52" width="160" height="26" as="geometry" />
        </mxCell>
        <mxCell id="zkfFHV4jXpPFQw0GAbJ--3" value="Email Address" style="text;align=left;verticalAlign=top;spacingLeft=4;spacingRight=4;overflow=hidden;rotatable=0;points=[[0,0.5],[1,0.5]];portConstraint=eastwest;rounded=0;shadow=0;html=0;" parent="zkfFHV4jXpPFQw0GAbJ--0" vertex="1">
          <mxGeometry y="78" width="160" height="26" as="geometry" />
        </mxCell>
        <mxCell id="zkfFHV4jXpPFQw0GAbJ--4" value="" style="line;html=1;strokeWidth=1;align=left;verticalAlign=middle;spacingTop=-1;spacingLeft=3;spacingRight=3;rotatable=0;labelPosition=right;points=[];portConstraint=eastwest;" parent="zkfFHV4jXpPFQw0GAbJ--0" vertex="1">
          <mxGeometry y="104" width="160" height="8" as="geometry" />
        </mxCell>
        <mxCell id="zkfFHV4jXpPFQw0GAbJ--5" value="Purchase Parking Pass" style="text;align=left;verticalAlign=top;spacingLeft=4;spacingRight=4;overflow=hidden;rotatable=0;points=[[0,0.5],[1,0.5]];portConstraint=eastwest;" parent="zkfFHV4jXpPFQw0GAbJ--0" vertex="1">
          <mxGeometry y="112" width="160" height="26" as="geometry" />
        </mxCell>
        <mxCell id="zkfFHV4jXpPFQw0GAbJ--6" value="Student" style="swimlane;fontStyle=0;align=center;verticalAlign=top;childLayout=stackLayout;horizontal=1;startSize=26;horizontalStack=0;resizeParent=1;resizeLast=0;collapsible=1;marginBottom=0;rounded=0;shadow=0;strokeWidth=1;" parent="WIyWlLk6GJQsqaUBKTNV-1" vertex="1">
          <mxGeometry x="120" y="360" width="160" height="138" as="geometry">
            <mxRectangle x="130" y="380" width="160" height="26" as="alternateBounds" />
          </mxGeometry>
        </mxCell>
        <mxCell id="zkfFHV4jXpPFQw0GAbJ--7" value="Student Number" style="text;align=left;verticalAlign=top;spacingLeft=4;spacingRight=4;overflow=hidden;rotatable=0;points=[[0,0.5],[1,0.5]];portConstraint=eastwest;" parent="zkfFHV4jXpPFQw0GAbJ--6" vertex="1">
          <mxGeometry y="26" width="160" height="26" as="geometry" />
        </mxCell>
        <mxCell id="zkfFHV4jXpPFQw0GAbJ--8" value="Average Mark" style="text;align=left;verticalAlign=top;spacingLeft=4;spacingRight=4;overflow=hidden;rotatable=0;points=[[0,0.5],[1,0.5]];portConstraint=eastwest;rounded=0;shadow=0;html=0;" parent="zkfFHV4jXpPFQw0GAbJ--6" vertex="1">
          <mxGeometry y="52" width="160" height="26" as="geometry" />
        </mxCell>
        <mxCell id="zkfFHV4jXpPFQw0GAbJ--9" value="" style="line;html=1;strokeWidth=1;align=left;verticalAlign=middle;spacingTop=-1;spacingLeft=3;spacingRight=3;rotatable=0;labelPosition=right;points=[];portConstraint=eastwest;" parent="zkfFHV4jXpPFQw0GAbJ--6" vertex="1">
          <mxGeometry y="78" width="160" height="8" as="geometry" />
        </mxCell>
        <mxCell id="zkfFHV4jXpPFQw0GAbJ--10" value="Is Eligible To Enroll" style="text;align=left;verticalAlign=top;spacingLeft=4;spacingRight=4;overflow=hidden;rotatable=0;points=[[0,0.5],[1,0.5]];portConstraint=eastwest;fontStyle=4" parent="zkfFHV4jXpPFQw0GAbJ--6" vertex="1">
          <mxGeometry y="86" width="160" height="26" as="geometry" />
        </mxCell>
        <mxCell id="zkfFHV4jXpPFQw0GAbJ--11" value="Get Seminars Taken" style="text;align=left;verticalAlign=top;spacingLeft=4;spacingRight=4;overflow=hidden;rotatable=0;points=[[0,0.5],[1,0.5]];portConstraint=eastwest;" parent="zkfFHV4jXpPFQw0GAbJ--6" vertex="1">
          <mxGeometry y="112" width="160" height="26" as="geometry" />
        </mxCell>
        <mxCell id="zkfFHV4jXpPFQw0GAbJ--12" value="" style="endArrow=block;endSize=10;endFill=0;shadow=0;strokeWidth=1;rounded=0;edgeStyle=elbowEdgeStyle;elbow=vertical;" parent="WIyWlLk6GJQsqaUBKTNV-1" source="zkfFHV4jXpPFQw0GAbJ--6" target="zkfFHV4jXpPFQw0GAbJ--0" edge="1">
          <mxGeometry width="160" relative="1" as="geometry">
            <mxPoint x="200" y="203" as="sourcePoint" />
            <mxPoint x="200" y="203" as="targetPoint" />
          </mxGeometry>
        </mxCell>
        <mxCell id="zkfFHV4jXpPFQw0GAbJ--13" value="Professor" style="swimlane;fontStyle=0;align=center;verticalAlign=top;childLayout=stackLayout;horizontal=1;startSize=26;horizontalStack=0;resizeParent=1;resizeLast=0;collapsible=1;marginBottom=0;rounded=0;shadow=0;strokeWidth=1;" parent="WIyWlLk6GJQsqaUBKTNV-1" vertex="1">
          <mxGeometry x="330" y="360" width="160" height="70" as="geometry">
            <mxRectangle x="340" y="380" width="170" height="26" as="alternateBounds" />
          </mxGeometry>
        </mxCell>
        <mxCell id="zkfFHV4jXpPFQw0GAbJ--14" value="Salary" style="text;align=left;verticalAlign=top;spacingLeft=4;spacingRight=4;overflow=hidden;rotatable=0;points=[[0,0.5],[1,0.5]];portConstraint=eastwest;" parent="zkfFHV4jXpPFQw0GAbJ--13" vertex="1">
          <mxGeometry y="26" width="160" height="26" as="geometry" />
        </mxCell>
        <mxCell id="zkfFHV4jXpPFQw0GAbJ--15" value="" style="line;html=1;strokeWidth=1;align=left;verticalAlign=middle;spacingTop=-1;spacingLeft=3;spacingRight=3;rotatable=0;labelPosition=right;points=[];portConstraint=eastwest;" parent="zkfFHV4jXpPFQw0GAbJ--13" vertex="1">
          <mxGeometry y="52" width="160" height="8" as="geometry" />
        </mxCell>
        <mxCell id="zkfFHV4jXpPFQw0GAbJ--16" value="" style="endArrow=block;endSize=10;endFill=0;shadow=0;strokeWidth=1;rounded=0;edgeStyle=elbowEdgeStyle;elbow=vertical;" parent="WIyWlLk6GJQsqaUBKTNV-1" source="zkfFHV4jXpPFQw0GAbJ--13" target="zkfFHV4jXpPFQw0GAbJ--0" edge="1">
          <mxGeometry width="160" relative="1" as="geometry">
            <mxPoint x="210" y="373" as="sourcePoint" />
            <mxPoint x="310" y="271" as="targetPoint" />
          </mxGeometry>
        </mxCell>
        <mxCell id="zkfFHV4jXpPFQw0GAbJ--17" value="Address" style="swimlane;fontStyle=0;align=center;verticalAlign=top;childLayout=stackLayout;horizontal=1;startSize=26;horizontalStack=0;resizeParent=1;resizeLast=0;collapsible=1;marginBottom=0;rounded=0;shadow=0;strokeWidth=1;" parent="WIyWlLk6GJQsqaUBKTNV-1" vertex="1">
          <mxGeometry x="508" y="120" width="160" height="216" as="geometry">
            <mxRectangle x="550" y="140" width="160" height="26" as="alternateBounds" />
          </mxGeometry>
        </mxCell>
        <mxCell id="zkfFHV4jXpPFQw0GAbJ--18" value="Street" style="text;align=left;verticalAlign=top;spacingLeft=4;spacingRight=4;overflow=hidden;rotatable=0;points=[[0,0.5],[1,0.5]];portConstraint=eastwest;" parent="zkfFHV4jXpPFQw0GAbJ--17" vertex="1">
          <mxGeometry y="26" width="160" height="26" as="geometry" />
        </mxCell>
        <mxCell id="zkfFHV4jXpPFQw0GAbJ--19" value="City" style="text;align=left;verticalAlign=top;spacingLeft=4;spacingRight=4;overflow=hidden;rotatable=0;points=[[0,0.5],[1,0.5]];portConstraint=eastwest;rounded=0;shadow=0;html=0;" parent="zkfFHV4jXpPFQw0GAbJ--17" vertex="1">
          <mxGeometry y="52" width="160" height="26" as="geometry" />
        </mxCell>
        <mxCell id="zkfFHV4jXpPFQw0GAbJ--20" value="State" style="text;align=left;verticalAlign=top;spacingLeft=4;spacingRight=4;overflow=hidden;rotatable=0;points=[[0,0.5],[1,0.5]];portConstraint=eastwest;rounded=0;shadow=0;html=0;" parent="zkfFHV4jXpPFQw0GAbJ--17" vertex="1">
          <mxGeometry y="78" width="160" height="26" as="geometry" />
        </mxCell>
        <mxCell id="zkfFHV4jXpPFQw0GAbJ--21" value="Postal Code" style="text;align=left;verticalAlign=top;spacingLeft=4;spacingRight=4;overflow=hidden;rotatable=0;points=[[0,0.5],[1,0.5]];portConstraint=eastwest;rounded=0;shadow=0;html=0;" parent="zkfFHV4jXpPFQw0GAbJ--17" vertex="1">
          <mxGeometry y="104" width="160" height="26" as="geometry" />
        </mxCell>
        <mxCell id="zkfFHV4jXpPFQw0GAbJ--22" value="Country" style="text;align=left;verticalAlign=top;spacingLeft=4;spacingRight=4;overflow=hidden;rotatable=0;points=[[0,0.5],[1,0.5]];portConstraint=eastwest;rounded=0;shadow=0;html=0;" parent="zkfFHV4jXpPFQw0GAbJ--17" vertex="1">
          <mxGeometry y="130" width="160" height="26" as="geometry" />
        </mxCell>
        <mxCell id="zkfFHV4jXpPFQw0GAbJ--23" value="" style="line;html=1;strokeWidth=1;align=left;verticalAlign=middle;spacingTop=-1;spacingLeft=3;spacingRight=3;rotatable=0;labelPosition=right;points=[];portConstraint=eastwest;" parent="zkfFHV4jXpPFQw0GAbJ--17" vertex="1">
          <mxGeometry y="156" width="160" height="8" as="geometry" />
        </mxCell>
        <mxCell id="zkfFHV4jXpPFQw0GAbJ--24" value="Validate" style="text;align=left;verticalAlign=top;spacingLeft=4;spacingRight=4;overflow=hidden;rotatable=0;points=[[0,0.5],[1,0.5]];portConstraint=eastwest;" parent="zkfFHV4jXpPFQw0GAbJ--17" vertex="1">
          <mxGeometry y="164" width="160" height="26" as="geometry" />
        </mxCell>
        <mxCell id="zkfFHV4jXpPFQw0GAbJ--25" value="Output As Label" style="text;align=left;verticalAlign=top;spacingLeft=4;spacingRight=4;overflow=hidden;rotatable=0;points=[[0,0.5],[1,0.5]];portConstraint=eastwest;" parent="zkfFHV4jXpPFQw0GAbJ--17" vertex="1">
          <mxGeometry y="190" width="160" height="26" as="geometry" />
        </mxCell>
        <mxCell id="zkfFHV4jXpPFQw0GAbJ--26" value="" style="endArrow=open;shadow=0;strokeWidth=1;rounded=0;endFill=1;edgeStyle=elbowEdgeStyle;elbow=vertical;" parent="WIyWlLk6GJQsqaUBKTNV-1" source="zkfFHV4jXpPFQw0GAbJ--0" target="zkfFHV4jXpPFQw0GAbJ--17" edge="1">
          <mxGeometry x="0.5" y="41" relative="1" as="geometry">
            <mxPoint x="380" y="192" as="sourcePoint" />
            <mxPoint x="540" y="192" as="targetPoint" />
            <mxPoint x="-40" y="32" as="offset" />
          </mxGeometry>
        </mxCell>
        <mxCell id="zkfFHV4jXpPFQw0GAbJ--27" value="0..1" style="resizable=0;align=left;verticalAlign=bottom;labelBackgroundColor=none;fontSize=12;" parent="zkfFHV4jXpPFQw0GAbJ--26" connectable="0" vertex="1">
          <mxGeometry x="-1" relative="1" as="geometry">
            <mxPoint y="4" as="offset" />
          </mxGeometry>
        </mxCell>
        <mxCell id="zkfFHV4jXpPFQw0GAbJ--28" value="1" style="resizable=0;align=right;verticalAlign=bottom;labelBackgroundColor=none;fontSize=12;" parent="zkfFHV4jXpPFQw0GAbJ--26" connectable="0" vertex="1">
          <mxGeometry x="1" relative="1" as="geometry">
            <mxPoint x="-7" y="4" as="offset" />
          </mxGeometry>
        </mxCell>
        <mxCell id="zkfFHV4jXpPFQw0GAbJ--29" value="lives at" style="text;html=1;resizable=0;points=[];;align=center;verticalAlign=middle;labelBackgroundColor=none;rounded=0;shadow=0;strokeWidth=1;fontSize=12;" parent="zkfFHV4jXpPFQw0GAbJ--26" vertex="1" connectable="0">
          <mxGeometry x="0.5" y="49" relative="1" as="geometry">
            <mxPoint x="-38" y="40" as="offset" />
          </mxGeometry>
        </mxCell>
        <mxCell id="YQOEkecdMvN7f9yoQHlw-0" value="" style="shape=stencil(lVrZchw3DPyafUWRBM9nx/kPV1mOtqJILlm5/j5gNhwtmzM90dtqxB4eABoNcC766cfjl+8Pl+B+vL2+/Prw5/Xr2+NFf7qEcH1+fHi9vtmvi36+6KdvL68Pv7y+/P789fb39y99ZP/128sf/Q1/3XBeSuqg4P6+PUhVNP/75Ofb+Kfr8934JLlO47OXVI7Hey/RzYAsqRGAzZAnQHGi8RgQnOQyA6IUTwBZFABNUjgGaJAYJkCN48k+oC6AKo2caoziZkALksmmY5PgZ0ASRwApigdAlsAAVWpEQCJ7yCoaEOCJHXKRpLgHn44BxXxpdtamUskMZXvf3bH+5477gDqceQN4cXoMqBY/8x5qo5Y2z8kJAUrioRbxFQGezdAW52vjFbsAO0RwjfdX7AOShDlEbZGF7MEADU4p0BDtnjOfklmGkUB35plmiu2KWNoAbp7B3DHyPZT5lIz5KjvWhEtKmW86SpotncxbifOZ4cJs6Vi4LzWpsx1ikkSW1J2vzYAolc1gS1oAjARKkQYAlcRC1EigIoAxX45ohxhGEttnvizZI0BJjjMy9oqAQPbQ/50/AtCMzNeXRPagHiPOAJFl0Ypp9wyQkWYM4FjaVWkzt2qhIRqi6LwHVZqBwhJx6ih79z3MgP6EWDoUqfMeQqDxEBrqJd8okXXDzZb2G1PtA4w15jztdZzbPsBOHQB+8Mg+oEmBpDhy2JF3K6QHeqjGEAUUH/XtuGzABB1xPAtPBY0rgaw/LbSqNDiNL8ApPBUZljdAKDman43AXITxjr2/YPJ0nIId+qijCt3kNeg2Pw74f4qqQDOtaQN4v460tT/ezA+JlqZNy4JlPv8yXrCfZgMWGI36T1fic0rrAcaUQpa2hjBbkWnMOUOZCVi50AFAdIFSqQFA7ZgRWDowAAS90bcnUd/qUE93gMwEWMWwMUBj8shEaURAZUsqmD8MwApDMxwwV09yHBAXgOcAhT2EUfkdzrC4RmDHmjHxW/hH5t5F3AywlFaYexfUtb5RwjBLA4H5xjddMaL7DMzS9j5FAKskDZB1OSV2rG1RCp6m5R6iMMOmEg9nAG9VWhgaIDYENGaHhjVSjwduuOQRQGuksmz6NKahd9NZg1k6D312z0u8kgQ91ZmPV5LIfOGMNT4ISEhkfqs4jgpD1ISJljzNIy9ZBmKAWlET+q0Tsg9IQ1O8J1HaJ/FYLdTBIkciA5oYhfYlTcQAA2Qq5E0kxQLj84kIQ5HKRHCvUnE8S9CpYeN2K9WPRCrktjoSxf74RYR5RzNVcph4zCOYk8a61CGBAxJmW3NS1i+MisLfc00SPbZhLW4YQCtawao1pj2tkE+zGXyl4t/KO9iDJR7WoO/NagAoLYKtRoamkLme4zUtihguiMOi3GyRFJAxn1vRejIDMKRW2tjqZbZDACsydGkVdNuf9HiWJbGuau8iLQCm3HqfagXwQjIkBDBNUjzmkQ7gpZ5fTonNUHWp9fime6d5AdD07FCTGIBqdMXiKrqRKw672wBQXiCWodPu+ra0fCt4F5NORH0dLLQBktQTqbd0t0/UJxyrZTzHJEbDeq/wvq13W5tjQ2yq43AKuMjYeo6HZQAkxcrrhoq1jymnxgyxCeYNEPmSPEaQATKLoIJCpvEatEakvnbSXwl4SrYkR3yjtOWuMQ4H3gcsd779eoZfAoCq77U7k1dLBPVahQREVkxy3eNZ13CVAo736ZKOsvluCtpYrXgx0fhlfdTFcokawtIsyJMWaI/e8igQjfljYtcGCRsa5l7Mv63UgU2XQt3VL9doRjRMC5iwVaAy3gyI2AvIvGhdPlDoN4d0PNysnHxj4bBf3bmbvt/BNxwmAQljuCU3OMqSC2+nrf14ND7jeNZrdMvFahu6/WC8zmRhscp6BmavgOPZtapDMrLxgazH441+qrSOWW48+/vJeX70m57z8fbj/QOib9enp9v3R/f/xw+O7NHtYyX9/A8=);lineShape=1;" vertex="1" parent="WIyWlLk6GJQsqaUBKTNV-1">
          <mxGeometry x="346.5921526612003" y="21.21737227122344" width="116.47020736274885" height="72.85765864558016" as="geometry" />
        </mxCell>
        <mxCell id="YQOEkecdMvN7f9yoQHlw-1" value="" style="shape=stencil(fZbdcgIhDIWfZm8zQAg/17Z9j85U606tdqz9e/tmZ0c0uJ47xP0I5JwEBl59bp8/1kNwn6fj4W39M76ctgM/DCGM++36OJ50NPDjwKvN4bh+PR6+9i/z74/n6ctp9H74nlb4nbmSKZeJCu5vngmZ6jzzNAO7cX8FVKEsBuBKrgKg9oAE8gkCbLeUhEoEQKSUDZDLeWYRKIl8MEDRmHwfyBrBG6Amyu4+kDxxMoB3jhwgYu7TVAsVkFcWCs4CTBEoF4RctKeOxHIf8IXYpikHikAIf+MNUW94AGSSaoAoFIE3AlOyeWU+p2E5S9yfQZcQILVuQOwZdJNoS9Ls3wA5u2XZTIHECqeJ9kDpSaauRiNVcAY1QhdBzeLBli5WazpkSsBLV25uRaqWRyFawTQzRRIQYirJzq5atkBqLfouwqUxLBepthWb10vrWZY6UOAeyKCCtDV625mm9gmUC4Wc3VLJMMIE1BsA2FW9JraVlQB7n3c9oMKhCLEvIM1zBPZ25/umNQ1tVEC2G+fFCC8g398O2hNQuQlVu752DBfA+q0ptnqO5JFmeuIuo9DY7KjY71UxdJV4EntifPWorW++R/dC4t7V3DlIB5cHx2bc7eb3yvX//QNFp+bHDT/+Aw==);lineShape=1;" vertex="1" parent="WIyWlLk6GJQsqaUBKTNV-1">
          <mxGeometry x="480.86796084247567" y="65.87531245851915" width="4.672539772115442" height="4.665236216357698" as="geometry" />
        </mxCell>
        <mxCell id="YQOEkecdMvN7f9yoQHlw-2" value="" style="shape=stencil(nVfZchpBDPwaXlWae+bZSf7DVcYxFce4sHP9fXpDZo0EtCt5A1a9SK3WtUk3Lw+3z9tN1JfXw/7L9sfu7vVhkz5sYtw9PWwPu1d82qSPm3Rzvz9sPx/2357ujt+fbxfL5dPX/fflDT+PuCiqCyjqr+MPIUrqf375dLR/3D2d2Dfpw9h3SXrdfHlbMfZZGrNvkrP1h9rHJCkae5UQiP2Q5u2VvD9Vycn5E+N1+wx/mrFPUgmdBX9v+az0/aXO7Ez7IZ28v0aJjs8koxBAk2oDCF16JoKIkqsBIOQwCKBKt5KDqP6SdhHQdVK4chqkkCT3JmpdSkMGAYwg1bKUq7RKAE2ijaEUCSSG0efjFQAnSeLGEA1WGEECyQMA1Sq1VhlESgAMy1JL0hlLANgYOlwixbO4ZIu/d1Hukto8DLhE1Apao2UJmRmMViTOsvQW1WXAWo8ngMpiKBJdhdZJ9GVAnmJeASha5lKaIa60VlHGUppiXjPdZTAtgXUHCLSNIQYXdC3cpey1VNCZE6XVuYRWSFmqZ4B3XGoX/oE1MojP0YoYCnNpSLb1UDPtrWNt7id5yAQQVP08R6pp5kC7G+jlvS4QbeYgV9rJuhTr0pIaluo2WTwpucIqqM7H68xSPtb/A4HHrvlh8yFOgcbWfCYam4vDAzCLmcIxSNV1fKiDxADxNCsnlEQm/wAHXNB5zGl/GRCmdlZAmgvUtX1GbUkkyIWwlNdJvgKwUZKyhgNuA0qJ6nVZ+axeU6SZjmclBADLNBakEn0MbOvDVuykAScjoRVrd8ue1kQaB566vOkcxZdDkGwjyFkCc8ifDbBXau/WXKSRbQ7qVZGxmhBV6FkGIDvij/q1IZXJ2BV7L2s+QM/a9nJoUf/V8oO7ig039fMZv2QiUZ1FuPbHRs/CcHZGYsCzO0+y9QdnSWR33j+eqe/b48PbTXy/e3w8ntSnz/0NjZ+O93f6+Bs=);lineShape=1;" vertex="1" parent="WIyWlLk6GJQsqaUBKTNV-1">
          <mxGeometry x="492.3954054198887" y="58.1566263784772" width="72.5302168379792" height="10.064286482192642" as="geometry" />
        </mxCell>
        <mxCell id="YQOEkecdMvN7f9yoQHlw-3" value="" style="shape=stencil(lVnZchw3DPyafUWRBA/w2XH+w1WWo60okkuWc/x9MNlwNGzudOK31Qg9AwKNkxf98O3x09eHSwrf3l5ffn344/r57fGiP11Suj4/Prxe3/zXRT9e9MOXl9eHX15fvj9/vv399dMmuf367eX37Q1/3nAlSIkbKoW//n0SRcM/T36+AZ6uzwdALlI7ArqdA7RLqTMgSVICKJJ1ARCVNEivqFJt54BUJcEZwjjVfUCUNn8hdwkEEJv0MgOqGAMUifOhc5ZYCUAltRkQJRYC2K0+AGoSiVmjHxoAZdjtDFDTDHDPMEAStQmQmhihRsxiYQa4lSIBVOl5BriSzKx9uGkAoklLhBoqbQ4gd2UmX0iG9I7/EUAqfQb4G4ijcxjE2dktkXjBmQnvT1LIiUuWMJ84SMvn8jVKaCAfCO+qc8BAPpFoblnS7GOewcw/P8emSiAOs4Lv5w62LnWWN6p/90iez+uEyMSgvUqEA2fKoO4KzIxwUhsDeM6eTeQ2UqJSDLtPd4SN4D79xMwK5znVySTMp/bKYiT2u7sJMqQbjjnCU8PsCC88TCWrmPBK54CAVKqVeq4labNKjVupZtE5f/k3lRy6lBEsO8CrIzGrGxHC2e3G8os2ifMZ+h5RZxkSkrb7nn0hLYXH2dV4tc2Q5QNPSjEgwnVita0ivTtvAHQovMvrsML9M2O89TDSzl35sBSRNjqOE3kozaYSSVVY4r95vNL3ByB2oxnG9ZlTWKuj8J7Im6I8o7Wn3JlCrVB/pUX/QimXRo08yHeij+fbtOhP7KNLoqi0Kmcsgpv9SWLJw/tH/5K84uxtKM/0UQzh1ikfdPR9B/lG9E+Sgc+B8jOKpUWeNY6Y5FwfI/bxaFWUz0T/gN2727PzeFz8lYj+uzUOfChU/wT8qZTPYbTdB3ml9kzg30IrpfuroryRhL73uEd5zreM+rPpSbEJdPlCzqvjdAf7s/lvjcdG9f9xeRgvLQ3GnsgX6DsqnZAL+teM+tfZMst3PsgZ+qvn8eRseAUDbW02SxDLmqI3WmGcolAyHBDIIJds6bSKFMbR3eQ7INFFSM5LlrPRA9/3mmKYmdKyV73uQZ6wYYb7He/SqLR9D3EfYJh5vQdmnZl5iwz7JaNU9YEOuLTtyIjj3q1+WOZ0NnlkrJbKu0vnJi5zPOGwYagO5hzmM7by2r6wrFrYWN0LLtU85xcGcI1nasRGS7JHPOSAqLTmO5lhqeZtfGNJI2NXwZscr9mQJQvdX23D2/z+TAeb2rCr01F2z1YtivIsw5SMXamOhHA/XxgmmCKVLYuXFaLRDaIWDP73neLZ6hd2RZ6WE2sD67Kus7E9Ptvv4Y4y0cZ024bB7oSPu9suBvZvbWwuTpeaM+uS974cEOdY1kSbo1hxT+GlhS5mvZmAfXcci4jTPStEgtL51a3e5zNsNxGEGu7pPnM1Nz6xLMHjAEYNZyv0kB4fmdG7j7JxALAmJq+3AkaX/LmPoeBwBhYPJeC+aAOwfVFYPN34gikuFxU+WTCVIo5Gmx8IW7cLqIhWYmmmJIyHzIfTDQBn6PQOawMoAtg1wnYGqCRh9DVngJYQUNih43DTAdDZGe5dq7H96Q/fJf4PgP94v7r8cn16ut18Hv+PV53+6HZNqh//Bg==);lineShape=1;" vertex="1" parent="WIyWlLk6GJQsqaUBKTNV-1">
          <mxGeometry x="148.1317384558588" y="21.76028377853686" width="93.33708378205961" height="89.74798661770205" as="geometry" />
        </mxCell>
        <mxCell id="YQOEkecdMvN7f9yoQHlw-4" value="" style="shape=stencil(lVrLchw3DPwaXVkkQZDE2XH+w1WWI1UUySUrr78PmK2ZHTZne8u31Yq9JIFG4zHzIJ9+PH35/viQ44+P97ffH/9+/vrx9CC/POT8/Pr0+P784Z8e5PODfPr29v742/vbn69fL39//zJWjk9/vP01fuGfC67kkGygcvz38k0Kkv//4tfL+pfn1+N6CSlN6zXkRtf3Oq1vobDfL0FlWm9BOlmvofb5/DkY26AG0RmgITJACynOgBayUECdr5BjSJUC+nyHnEMxAughwg4aCtvBAfOl3ayR3cEB85FEtp+4BQAeSQvCd5A2AUoKle+g8w7u+8ao17d/7wALGgnA0KyaQ0sUAFxS5Ww1ZKt6OHCAzYAag3JPg1mrhMzonUOfA7oqBUgPNSNAGUDQDw5IhN65hzKbtZaQiKc9XCCAag5CHOcRrOA4C42wNe1E2AGVOs6NBOv9jGQDj99ZZAoPUI9G4LZ7jZwnhVIw2jqJhYjrh9vJ78cQ5/NLDZH42NfP9pFC7xtDg/MkziG0v3vEyPkVI9nzFIsClzuQbL1HILhwLiETB6QabLao36mRyB9XnjOtO12JoHoKqLDDbuVbgVwMAZWEmSxhNgBM7jwFNAQYkztFXoz6hUu2KQKYWbVsufvgByGO074VOAeAEbO6VilQQzbPnAN26TlyidyhxS0VHwBG2NrKCb0r26FtbtoBleapnlDjPeCUaHzfT3yMaOLp3jdB3CXD6U3MamnL3ceah1jJXLLmSw/RI5e2GjIUSUbjwTrWnl5PsxA1W/JIp9RIcVFu9YKByIZvAfnfGa/sTEvxWbnWmyL7qtFk654DRziBG7lDd9mY79CM89tQ+voeIueAjJXe4COhq9dE0DX4rSrJcMPq86WdjyyCNGEd5nxsrM3Ym4odsFeX53pvoc9qbHuFfA5QbDNs/4lzQESdORD4PMs1VFfbU8B5RCzNlZupM0DDlOIAIXb1HRIAlGaItLQ+DmCpPdnWoR4ATAbW+m0EITNrDD0jIJKA8DQLFZnxPsOzJui3A5gKXOujA6CzSwvWZMNx7NKeyA0Bd2oyaBus8bI1b0XhAUCLuLTQu9HCftR4C4DlUedSt2UH1mpYSIIAlngHvTMC7gXQ4jhjgLMQZTkrLTnLAYzeaan6nHyVaKVbaY04YUfaO9RjiBKAe1oXmYmsjfYCaAkgNrhytkIXanz+MXqU5Q6NiwDovfuBXvqnAYpt0+ASuYOnIJho3glR72x1iWnaNvUljTaad0tZ0mjdirTzUiAu9OZc0rpwaRfP83JGFi5FWlZ6j5JmLvVKZaZVjIeeqQj0RYxbD5VcurtszWZtQksHW9rXynsUr9hg7OB2oz3K0u+OdpNQ41pZHMr7cqf4ns065qjsSBJ0tpLTkQ2jbZ1FRTo78coZYlp4xDlzICkKL066YH7w1o9V696+QkctaSPLOVs7PtdwHWH5oSmqRjZaa3jHgT17p7MT5ybuwHtFb9uga8pcyGrcSpHDVMBYi1JRWx3AlG8M6JdBRWfzn47j7uvo75a2Nhh6FZofnMyWEcACSBqO7B3AHv84N9cdCisS2zIaLHQanZengmO8yUq4fXhzcBxja5LFcY0+t0vOJdjB6LClbXPA4/iHGEkx/0im+acsCqA0ORQsED3NswdkinPHknh0Yu4Zj1LZBA57metDwlsT7ASZJPEaumIm0UJjM+/zuR3AZ4JuI+iL1WhGl2UQWhO99KjdDAGd0HSkMigBMqVpKcvzt8if5er2YOVgJTYuLsuQRZXWDAOwPgdlg6KCLeJ40spiZzGr70mDrSxVSaLRXAQ7DZfZQqhRlidqLrNswlfyVkcdBIn19iWd5Ko7T0NgAjLmCcxxcas2d0DkLxJElO20v7xwC5BnEUhKn6mLYa5y5WctogNA92wT/lvNUp2pxPOIr0/zgZQmKqlY3iZ+nqVTSnRq5evxBRY6ePP1UAxHfv59lHJdz+TF10PDEO+9DqB4HjZkcP9m/H02vx0EElzPGQr+irSz9SBLeH5aD6Ytw1zXs1bbZQLmPJGXCT/7Qtbd9f7h+vbXt+eXl8vLY8f/49ti/tXlTTP5/B8=);lineShape=1;" vertex="1" parent="WIyWlLk6GJQsqaUBKTNV-1">
          <mxGeometry x="58.92455782115053" y="52.900819579149356" width="73.81689480917589" height="131.91940509301844" as="geometry" />
        </mxCell>
      </root>
    </mxGraphModel>
  </diagram>
</mxfile>
